<svg xmlns="http://www.w3.org/2000/svg" xmlns:xlink="http://www.w3.org/1999/xlink"><symbol class="aabi aabi-arrow-bar-left" viewBox="0 0 16 16" id="arrow-bar-left" xmlns="http://www.w3.org/2000/svg"><path fill-rule="evenodd" d="M12.5 15a.5.5 0 01-.5-.5v-13a.5.5 0 011 0v13a.5.5 0 01-.5.5zM10 8a.5.5 0 01-.5.5H3.707l2.147 2.146a.5.5 0 01-.708.708l-3-3a.5.5 0 010-.708l3-3a.5.5 0 11.708.708L3.707 7.5H9.5a.5.5 0 01.5.5z"/></symbol><symbol class="abbi abbi-arrow-bar-right" viewBox="0 0 16 16" id="arrow-bar-right" xmlns="http://www.w3.org/2000/svg"><path fill-rule="evenodd" d="M6 8a.5.5 0 00.5.5h5.793l-2.147 2.146a.5.5 0 00.708.708l3-3a.5.5 0 000-.708l-3-3a.5.5 0 00-.708.708L12.293 7.5H6.5A.5.5 0 006 8zm-2.5 7a.5.5 0 01-.5-.5v-13a.5.5 0 011 0v13a.5.5 0 01-.5.5z"/></symbol><symbol class="acbi acbi-box-arrow-in-left" viewBox="0 0 16 16" id="box-arrow-in-left" xmlns="http://www.w3.org/2000/svg"><path fill-rule="evenodd" d="M10 3.5a.5.5 0 00-.5-.5h-8a.5.5 0 00-.5.5v9a.5.5 0 00.5.5h8a.5.5 0 00.5-.5v-2a.5.5 0 011 0v2A1.5 1.5 0 019.5 14h-8A1.5 1.5 0 010 12.5v-9A1.5 1.5 0 011.5 2h8A1.5 1.5 0 0111 3.5v2a.5.5 0 01-1 0v-2z"/><path fill-rule="evenodd" d="M4.146 8.354a.5.5 0 010-.708l3-3a.5.5 0 11.708.708L5.707 7.5H14.5a.5.5 0 010 1H5.707l2.147 2.146a.5.5 0 01-.708.708l-3-3z"/></symbol><symbol class="adbi adbi-building" viewBox="0 0 16 16" id="building" xmlns="http://www.w3.org/2000/svg"><path fill-rule="evenodd" d="M14.763.075A.5.5 0 0115 .5v15a.5.5 0 01-.5.5h-3a.5.5 0 01-.5-.5V14h-1v1.5a.5.5 0 01-.5.5h-9a.5.5 0 01-.5-.5V10a.5.5 0 01.342-.474L6 7.64V4.5a.5.5 0 01.276-.447l8-4a.5.5 0 01.487.022zM6 8.694L1 10.36V15h5V8.694zM7 15h2v-1.5a.5.5 0 01.5-.5h2a.5.5 0 01.5.5V15h2V1.309l-7 3.5V15z"/><path d="M2 11h1v1H2v-1zm2 0h1v1H4v-1zm-2 2h1v1H2v-1zm2 0h1v1H4v-1zm4-4h1v1H8V9zm2 0h1v1h-1V9zm-2 2h1v1H8v-1zm2 0h1v1h-1v-1zm2-2h1v1h-1V9zm0 2h1v1h-1v-1zM8 7h1v1H8V7zm2 0h1v1h-1V7zm2 0h1v1h-1V7zM8 5h1v1H8V5zm2 0h1v1h-1V5zm2 0h1v1h-1V5zm0-2h1v1h-1V3z"/></symbol><symbol class="aebi aebi-calendar3" viewBox="0 0 16 16" id="calendar3" xmlns="http://www.w3.org/2000/svg"><path d="M14 0H2a2 2 0 00-2 2v12a2 2 0 002 2h12a2 2 0 002-2V2a2 2 0 00-2-2zM1 3.857C1 3.384 1.448 3 2 3h12c.552 0 1 .384 1 .857v10.286c0 .473-.448.857-1 .857H2c-.552 0-1-.384-1-.857V3.857z"/><path d="M6.5 7a1 1 0 100-2 1 1 0 000 2zm3 0a1 1 0 100-2 1 1 0 000 2zm3 0a1 1 0 100-2 1 1 0 000 2zm-9 3a1 1 0 100-2 1 1 0 000 2zm3 0a1 1 0 100-2 1 1 0 000 2zm3 0a1 1 0 100-2 1 1 0 000 2zm3 0a1 1 0 100-2 1 1 0 000 2zm-9 3a1 1 0 100-2 1 1 0 000 2zm3 0a1 1 0 100-2 1 1 0 000 2zm3 0a1 1 0 100-2 1 1 0 000 2z"/></symbol><symbol class="afbi afbi-card-list" viewBox="0 0 16 16" id="card-list" xmlns="http://www.w3.org/2000/svg"><path d="M14.5 3a.5.5 0 01.5.5v9a.5.5 0 01-.5.5h-13a.5.5 0 01-.5-.5v-9a.5.5 0 01.5-.5h13zm-13-1A1.5 1.5 0 000 3.5v9A1.5 1.5 0 001.5 14h13a1.5 1.5 0 001.5-1.5v-9A1.5 1.5 0 0014.5 2h-13z"/><path d="M5 8a.5.5 0 01.5-.5h7a.5.5 0 010 1h-7A.5.5 0 015 8zm0-2.5a.5.5 0 01.5-.5h7a.5.5 0 010 1h-7a.5.5 0 01-.5-.5zm0 5a.5.5 0 01.5-.5h7a.5.5 0 010 1h-7a.5.5 0 01-.5-.5zm-1-5a.5.5 0 11-1 0 .5.5 0 011 0zM4 8a.5.5 0 11-1 0 .5.5 0 011 0zm0 2.5a.5.5 0 11-1 0 .5.5 0 011 0z"/></symbol><symbol class="agbi agbi-card-text" viewBox="0 0 16 16" id="card-text" xmlns="http://www.w3.org/2000/svg"><path d="M14.5 3a.5.5 0 01.5.5v9a.5.5 0 01-.5.5h-13a.5.5 0 01-.5-.5v-9a.5.5 0 01.5-.5h13zm-13-1A1.5 1.5 0 000 3.5v9A1.5 1.5 0 001.5 14h13a1.5 1.5 0 001.5-1.5v-9A1.5 1.5 0 0014.5 2h-13z"/><path d="M3 5.5a.5.5 0 01.5-.5h9a.5.5 0 010 1h-9a.5.5 0 01-.5-.5zM3 8a.5.5 0 01.5-.5h9a.5.5 0 010 1h-9A.5.5 0 013 8zm0 2.5a.5.5 0 01.5-.5h6a.5.5 0 010 1h-6a.5.5 0 01-.5-.5z"/></symbol><symbol class="ahbi ahbi-envelope" viewBox="0 0 16 16" id="envelope" xmlns="http://www.w3.org/2000/svg"><path d="M0 4a2 2 0 012-2h12a2 2 0 012 2v8a2 2 0 01-2 2H2a2 2 0 01-2-2V4zm2-1a1 1 0 00-1 1v.217l7 4.2 7-4.2V4a1 1 0 00-1-1H2zm13 2.383l-4.708 2.825L15 11.105V5.383zm-.034 6.876l-5.64-3.471L8 9.583l-1.326-.795-5.64 3.47A1 1 0 002 13h12a1 1 0 00.966-.741zM1 11.105l4.708-2.897L1 5.383v5.722z"/></symbol><symbol class="aibi aibi-eye" viewBox="0 0 16 16" id="eye" xmlns="http://www.w3.org/2000/svg"><path d="M16 8s-3-5.5-8-5.5S0 8 0 8s3 5.5 8 5.5S16 8 16 8zM1.173 8a13.133 13.133 0 011.66-2.043C4.12 4.668 5.88 3.5 8 3.5c2.12 0 3.879 1.168 5.168 2.457A13.133 13.133 0 0114.828 8c-.058.087-.122.183-.195.288-.335.48-.83 1.12-1.465 1.755C11.879 11.332 10.119 12.5 8 12.5c-2.12 0-3.879-1.168-5.168-2.457A13.134 13.134 0 011.172 8z"/><path d="M8 5.5a2.5 2.5 0 100 5 2.5 2.5 0 000-5zM4.5 8a3.5 3.5 0 117 0 3.5 3.5 0 01-7 0z"/></symbol><symbol class="ajbi ajbi-eye-slash" viewBox="0 0 16 16" id="eye-slash" xmlns="http://www.w3.org/2000/svg"><path d="M13.359 11.238C15.06 9.72 16 8 16 8s-3-5.5-8-5.5a7.028 7.028 0 00-2.79.588l.77.771A5.944 5.944 0 018 3.5c2.12 0 3.879 1.168 5.168 2.457A13.134 13.134 0 0114.828 8c-.058.087-.122.183-.195.288-.335.48-.83 1.12-1.465 1.755-.165.165-.337.328-.517.486l.708.709z"/><path d="M11.297 9.176a3.5 3.5 0 00-4.474-4.474l.823.823a2.5 2.5 0 012.829 2.829l.822.822zm-2.943 1.299l.822.822a3.5 3.5 0 01-4.474-4.474l.823.823a2.5 2.5 0 002.829 2.829z"/><path d="M3.35 5.47c-.18.16-.353.322-.518.487A13.134 13.134 0 001.172 8l.195.288c.335.48.83 1.12 1.465 1.755C4.121 11.332 5.881 12.5 8 12.5c.716 0 1.39-.133 2.02-.36l.77.772A7.029 7.029 0 018 13.5C3 13.5 0 8 0 8s.939-1.721 2.641-3.238l.708.709zm10.296 8.884l-12-12 .708-.708 12 12-.708.708z"/></symbol><symbol class="akbi akbi-filter" viewBox="0 0 16 16" id="filter" xmlns="http://www.w3.org/2000/svg"><path d="M6 10.5a.5.5 0 01.5-.5h3a.5.5 0 010 1h-3a.5.5 0 01-.5-.5zm-2-3a.5.5 0 01.5-.5h7a.5.5 0 010 1h-7a.5.5 0 01-.5-.5zm-2-3a.5.5 0 01.5-.5h11a.5.5 0 010 1h-11a.5.5 0 01-.5-.5z"/></symbol><symbol class="albi albi-gear" viewBox="0 0 16 16" id="gear" xmlns="http://www.w3.org/2000/svg"><path d="M8 4.754a3.246 3.246 0 100 6.492 3.246 3.246 0 000-6.492zM5.754 8a2.246 2.246 0 114.492 0 2.246 2.246 0 01-4.492 0z"/><path d="M9.796 1.343c-.527-1.79-3.065-1.79-3.592 0l-.094.319a.873.873 0 01-1.255.52l-.292-.16c-1.64-.892-3.433.902-2.54 2.541l.159.292a.873.873 0 01-.52 1.255l-.319.094c-1.79.527-1.79 3.065 0 3.592l.319.094a.873.873 0 01.52 1.255l-.16.292c-.892 1.64.901 3.434 2.541 2.54l.292-.159a.873.873 0 011.255.52l.094.319c.527 1.79 3.065 1.79 3.592 0l.094-.319a.873.873 0 011.255-.52l.292.16c1.64.893 3.434-.902 2.54-2.541l-.159-.292a.873.873 0 01.52-1.255l.319-.094c1.79-.527 1.79-3.065 0-3.592l-.319-.094a.873.873 0 01-.52-1.255l.16-.292c.893-1.64-.902-3.433-2.541-2.54l-.292.159a.873.873 0 01-1.255-.52l-.094-.319zm-2.633.283c.246-.835 1.428-.835 1.674 0l.094.319a1.873 1.873 0 002.693 1.115l.291-.16c.764-.415 1.6.42 1.184 1.185l-.159.292a1.873 1.873 0 001.116 2.692l.318.094c.835.246.835 1.428 0 1.674l-.319.094a1.873 1.873 0 00-1.115 2.693l.16.291c.415.764-.42 1.6-1.185 1.184l-.291-.159a1.873 1.873 0 00-2.693 1.116l-.094.318c-.246.835-1.428.835-1.674 0l-.094-.319a1.873 1.873 0 00-2.692-1.115l-.292.16c-.764.415-1.6-.42-1.184-1.185l.159-.291A1.873 1.873 0 001.945 8.93l-.319-.094c-.835-.246-.835-1.428 0-1.674l.319-.094A1.873 1.873 0 003.06 4.377l-.16-.292c-.415-.764.42-1.6 1.185-1.184l.292.159a1.873 1.873 0 002.692-1.115l.094-.319z"/></symbol><symbol class="ambi ambi-graph-up" viewBox="0 0 16 16" id="graph-up" xmlns="http://www.w3.org/2000/svg"><path fill-rule="evenodd" d="M0 0h1v15h15v1H0V0zm10 3.5a.5.5 0 01.5-.5h4a.5.5 0 01.5.5v4a.5.5 0 01-1 0V4.9l-3.613 4.417a.5.5 0 01-.74.037L7.06 6.767l-3.656 5.027a.5.5 0 01-.808-.588l4-5.5a.5.5 0 01.758-.06l2.609 2.61L13.445 4H10.5a.5.5 0 01-.5-.5z"/></symbol><symbol class="anbi anbi-image" viewBox="0 0 16 16" id="image" xmlns="http://www.w3.org/2000/svg"><path d="M6.002 5.5a1.5 1.5 0 11-3 0 1.5 1.5 0 013 0z"/><path d="M2.002 1a2 2 0 00-2 2v10a2 2 0 002 2h12a2 2 0 002-2V3a2 2 0 00-2-2h-12zm12 1a1 1 0 011 1v6.5l-3.777-1.947a.5.5 0 00-.577.093l-3.71 3.71-2.66-1.772a.5.5 0 00-.63.062L1.002 12V3a1 1 0 011-1h12z"/></symbol><symbol class="aobi aobi-key" viewBox="0 0 16 16" id="key" xmlns="http://www.w3.org/2000/svg"><path d="M0 8a4 4 0 017.465-2H14a.5.5 0 01.354.146l1.5 1.5a.5.5 0 010 .708l-1.5 1.5a.5.5 0 01-.708 0L13 9.207l-.646.647a.5.5 0 01-.708 0L11 9.207l-.646.647a.5.5 0 01-.708 0L9 9.207l-.646.647A.5.5 0 018 10h-.535A4 4 0 010 8zm4-3a3 3 0 102.712 4.285A.5.5 0 017.163 9h.63l.853-.854a.5.5 0 01.708 0l.646.647.646-.647a.5.5 0 01.708 0l.646.647.646-.647a.5.5 0 01.708 0l.646.647.793-.793-1-1h-6.63a.5.5 0 01-.451-.285A3 3 0 004 5z"/><path d="M4 8a1 1 0 11-2 0 1 1 0 012 0z"/></symbol><symbol class="apbi apbi-pencil" viewBox="0 0 16 16" id="pencil" xmlns="http://www.w3.org/2000/svg"><path d="M12.146.146a.5.5 0 01.708 0l3 3a.5.5 0 010 .708l-10 10a.5.5 0 01-.168.11l-5 2a.5.5 0 01-.65-.65l2-5a.5.5 0 01.11-.168l10-10zM11.207 2.5L13.5 4.793 14.793 3.5 12.5 1.207 11.207 2.5zm1.586 3L10.5 3.207 4 9.707V10h.5a.5.5 0 01.5.5v.5h.5a.5.5 0 01.5.5v.5h.293l6.5-6.5zm-9.761 5.175l-.106.106-1.528 3.821 3.821-1.528.106-.106A.5.5 0 015 12.5V12h-.5a.5.5 0 01-.5-.5V11h-.5a.5.5 0 01-.468-.325z"/></symbol><symbol class="aqbi aqbi-pencil-square" viewBox="0 0 16 16" id="pencil-square" xmlns="http://www.w3.org/2000/svg"><path d="M15.502 1.94a.5.5 0 010 .706L14.459 3.69l-2-2L13.502.646a.5.5 0 01.707 0l1.293 1.293zm-1.75 2.456l-2-2L4.939 9.21a.5.5 0 00-.121.196l-.805 2.414a.25.25 0 00.316.316l2.414-.805a.5.5 0 00.196-.12l6.813-6.814z"/><path fill-rule="evenodd" d="M1 13.5A1.5 1.5 0 002.5 15h11a1.5 1.5 0 001.5-1.5v-6a.5.5 0 00-1 0v6a.5.5 0 01-.5.5h-11a.5.5 0 01-.5-.5v-11a.5.5 0 01.5-.5H9a.5.5 0 000-1H2.5A1.5 1.5 0 001 2.5v11z"/></symbol><symbol class="arbi arbi-people" viewBox="0 0 16 16" id="people" xmlns="http://www.w3.org/2000/svg"><path d="M15 14s1 0 1-1-1-4-5-4-5 3-5 4 1 1 1 1h8zm-7.978-1A.261.261 0 017 12.996c.001-.264.167-1.03.76-1.72C8.312 10.629 9.282 10 11 10c1.717 0 2.687.63 3.24 1.276.593.69.758 1.457.76 1.72l-.008.002a.274.274 0 01-.014.002H7.022zM11 7a2 2 0 100-4 2 2 0 000 4zm3-2a3 3 0 11-6 0 3 3 0 016 0zM6.936 9.28a5.88 5.88 0 00-1.23-.247A7.35 7.35 0 005 9c-4 0-5 3-5 4 0 .667.333 1 1 1h4.216A2.238 2.238 0 015 13c0-1.01.377-2.042 1.09-2.904.243-.294.526-.569.846-.816zM4.92 10A5.493 5.493 0 004 13H1c0-.26.164-1.03.76-1.724.545-.636 1.492-1.256 3.16-1.275zM1.5 5.5a3 3 0 116 0 3 3 0 01-6 0zm3-2a2 2 0 100 4 2 2 0 000-4z"/></symbol><symbol class="asbi asbi-person" viewBox="0 0 16 16" id="person" xmlns="http://www.w3.org/2000/svg"><path d="M8 8a3 3 0 100-6 3 3 0 000 6zm2-3a2 2 0 11-4 0 2 2 0 014 0zm4 8c0 1-1 1-1 1H3s-1 0-1-1 1-4 6-4 6 3 6 4zm-1-.004c-.001-.246-.154-.986-.832-1.664C11.516 10.68 10.289 10 8 10c-2.29 0-3.516.68-4.168 1.332-.678.678-.83 1.418-.832 1.664h10z"/></symbol><symbol class="atbi atbi-person-plus" viewBox="0 0 16 16" id="person-plus" xmlns="http://www.w3.org/2000/svg"><path d="M6 8a3 3 0 100-6 3 3 0 000 6zm2-3a2 2 0 11-4 0 2 2 0 014 0zm4 8c0 1-1 1-1 1H1s-1 0-1-1 1-4 6-4 6 3 6 4zm-1-.004c-.001-.246-.154-.986-.832-1.664C9.516 10.68 8.289 10 6 10c-2.29 0-3.516.68-4.168 1.332-.678.678-.83 1.418-.832 1.664h10z"/><path fill-rule="evenodd" d="M13.5 5a.5.5 0 01.5.5V7h1.5a.5.5 0 010 1H14v1.5a.5.5 0 01-1 0V8h-1.5a.5.5 0 010-1H13V5.5a.5.5 0 01.5-.5z"/></symbol><symbol class="aubi aubi-phone" viewBox="0 0 16 16" id="phone" xmlns="http://www.w3.org/2000/svg"><path d="M11 1a1 1 0 011 1v12a1 1 0 01-1 1H5a1 1 0 01-1-1V2a1 1 0 011-1h6zM5 0a2 2 0 00-2 2v12a2 2 0 002 2h6a2 2 0 002-2V2a2 2 0 00-2-2H5z"/><path d="M8 14a1 1 0 100-2 1 1 0 000 2z"/></symbol><symbol class="avbi avbi-plus-lg" viewBox="0 0 16 16" id="plus-lg" xmlns="http://www.w3.org/2000/svg"><path d="M8 0a1 1 0 011 1v6h6a1 1 0 110 2H9v6a1 1 0 11-2 0V9H1a1 1 0 010-2h6V1a1 1 0 011-1z"/></symbol><symbol class="awbi awbi-search" viewBox="0 0 16 16" id="search" xmlns="http://www.w3.org/2000/svg"><path d="M11.742 10.344a6.5 6.5 0 10-1.397 1.398h-.001c.03.04.062.078.098.115l3.85 3.85a1 1 0 001.415-1.414l-3.85-3.85a1.007 1.007 0 00-.115-.1zM12 6.5a5.5 5.5 0 11-11 0 5.5 5.5 0 0111 0z"/></symbol><symbol class="axbi axbi-sliders" viewBox="0 0 16 16" id="sliders" xmlns="http://www.w3.org/2000/svg"><path fill-rule="evenodd" d="M11.5 2a1.5 1.5 0 100 3 1.5 1.5 0 000-3zM9.05 3a2.5 2.5 0 014.9 0H16v1h-2.05a2.5 2.5 0 01-4.9 0H0V3h9.05zM4.5 7a1.5 1.5 0 100 3 1.5 1.5 0 000-3zM2.05 8a2.5 2.5 0 014.9 0H16v1H6.95a2.5 2.5 0 01-4.9 0H0V8h2.05zm9.45 4a1.5 1.5 0 100 3 1.5 1.5 0 000-3zm-2.45 1a2.5 2.5 0 014.9 0H16v1h-2.05a2.5 2.5 0 01-4.9 0H0v-1h9.05z"/></symbol><symbol class="aybi aybi-speedometer2" viewBox="0 0 16 16" id="speedometer2" xmlns="http://www.w3.org/2000/svg"><path d="M8 4a.5.5 0 01.5.5V6a.5.5 0 01-1 0V4.5A.5.5 0 018 4zM3.732 5.732a.5.5 0 01.707 0l.915.914a.5.5 0 11-.708.708l-.914-.915a.5.5 0 010-.707zM2 10a.5.5 0 01.5-.5h1.586a.5.5 0 010 1H2.5A.5.5 0 012 10zm9.5 0a.5.5 0 01.5-.5h1.5a.5.5 0 010 1H12a.5.5 0 01-.5-.5zm.754-4.246a.389.389 0 00-.527-.02L7.547 9.31a.91.91 0 101.302 1.258l3.434-4.297a.389.389 0 00-.029-.518z"/><path fill-rule="evenodd" d="M0 10a8 8 0 1115.547 2.661c-.442 1.253-1.845 1.602-2.932 1.25C11.309 13.488 9.475 13 8 13c-1.474 0-3.31.488-4.615.911-1.087.352-2.49.003-2.932-1.25A7.988 7.988 0 010 10zm8-7a7 7 0 00-6.603 9.329c.203.575.923.876 1.68.63C4.397 12.533 6.358 12 8 12s3.604.532 4.923.96c.757.245 1.477-.056 1.68-.631A7 7 0 008 3z"/></symbol><symbol class="azbi azbi-trash" viewBox="0 0 16 16" id="trash" xmlns="http://www.w3.org/2000/svg"><path d="M5.5 5.5A.5.5 0 016 6v6a.5.5 0 01-1 0V6a.5.5 0 01.5-.5zm2.5 0a.5.5 0 01.5.5v6a.5.5 0 01-1 0V6a.5.5 0 01.5-.5zm3 .5a.5.5 0 00-1 0v6a.5.5 0 001 0V6z"/><path fill-rule="evenodd" d="M14.5 3a1 1 0 01-1 1H13v9a2 2 0 01-2 2H5a2 2 0 01-2-2V4h-.5a1 1 0 01-1-1V2a1 1 0 011-1H6a1 1 0 011-1h2a1 1 0 011 1h3.5a1 1 0 011 1v1zM4.118 4L4 4.059V13a1 1 0 001 1h6a1 1 0 001-1V4.059L11.882 4H4.118zM2.5 3V2h11v1h-11z"/></symbol><symbol class="babi babi-wallet2" viewBox="0 0 16 16" id="wallet2" xmlns="http://www.w3.org/2000/svg"><path d="M12.136.326A1.5 1.5 0 0114 1.78V3h.5A1.5 1.5 0 0116 4.5v9a1.5 1.5 0 01-1.5 1.5h-13A1.5 1.5 0 010 13.5v-9a1.5 1.5 0 011.432-1.499L12.136.326zM5.562 3H13V1.78a.5.5 0 00-.621-.484L5.562 3zM1.5 4a.5.5 0 00-.5.5v9a.5.5 0 00.5.5h13a.5.5 0 00.5-.5v-9a.5.5 0 00-.5-.5h-13z"/></symbol><symbol class="bbbi bbbi-x" viewBox="0 0 16 16" id="x" xmlns="http://www.w3.org/2000/svg"><path d="M4.646 4.646a.5.5 0 01.708 0L8 7.293l2.646-2.647a.5.5 0 01.708.708L8.707 8l2.647 2.646a.5.5 0 01-.708.708L8 8.707l-2.646 2.647a.5.5 0 01-.708-.708L7.293 8 4.646 5.354a.5.5 0 010-.708z"/></symbol><symbol class="bcbi bcbi-x-circle" viewBox="0 0 16 16" id="x-circle" xmlns="http://www.w3.org/2000/svg"><path d="M8 15A7 7 0 118 1a7 7 0 010 14zm0 1A8 8 0 108 0a8 8 0 000 16z"/><path d="M4.646 4.646a.5.5 0 01.708 0L8 7.293l2.646-2.647a.5.5 0 01.708.708L8.707 8l2.647 2.646a.5.5 0 01-.708.708L8 8.707l-2.646 2.647a.5.5 0 01-.708-.708L7.293 8 4.646 5.354a.5.5 0 010-.708z"/></symbol></svg>