<svg xmlns="http://www.w3.org/2000/svg" xmlns:xlink="http://www.w3.org/1999/xlink"><symbol class="abi abi-arrow-bar-left" viewBox="0 0 16 16" id="arrow-bar-left" xmlns="http://www.w3.org/2000/svg"><path fill-rule="evenodd" d="M12.5 15a.5.5 0 01-.5-.5v-13a.5.5 0 011 0v13a.5.5 0 01-.5.5zM10 8a.5.5 0 01-.5.5H3.707l2.147 2.146a.5.5 0 01-.708.708l-3-3a.5.5 0 010-.708l3-3a.5.5 0 11.708.708L3.707 7.5H9.5a.5.5 0 01.5.5z"/></symbol><symbol class="bbi bbi-arrow-bar-right" viewBox="0 0 16 16" id="arrow-bar-right" xmlns="http://www.w3.org/2000/svg"><path fill-rule="evenodd" d="M6 8a.5.5 0 00.5.5h5.793l-2.147 2.146a.5.5 0 00.708.708l3-3a.5.5 0 000-.708l-3-3a.5.5 0 00-.708.708L12.293 7.5H6.5A.5.5 0 006 8zm-2.5 7a.5.5 0 01-.5-.5v-13a.5.5 0 011 0v13a.5.5 0 01-.5.5z"/></symbol><symbol class="cbi cbi-eye" viewBox="0 0 16 16" id="eye" xmlns="http://www.w3.org/2000/svg"><path d="M16 8s-3-5.5-8-5.5S0 8 0 8s3 5.5 8 5.5S16 8 16 8zM1.173 8a13.133 13.133 0 011.66-2.043C4.12 4.668 5.88 3.5 8 3.5c2.12 0 3.879 1.168 5.168 2.457A13.133 13.133 0 0114.828 8c-.058.087-.122.183-.195.288-.335.48-.83 1.12-1.465 1.755C11.879 11.332 10.119 12.5 8 12.5c-2.12 0-3.879-1.168-5.168-2.457A13.134 13.134 0 011.172 8z"/><path d="M8 5.5a2.5 2.5 0 100 5 2.5 2.5 0 000-5zM4.5 8a3.5 3.5 0 117 0 3.5 3.5 0 01-7 0z"/></symbol><symbol class="dbi dbi-eye-slash" viewBox="0 0 16 16" id="eye-slash" xmlns="http://www.w3.org/2000/svg"><path d="M13.359 11.238C15.06 9.72 16 8 16 8s-3-5.5-8-5.5a7.028 7.028 0 00-2.79.588l.77.771A5.944 5.944 0 018 3.5c2.12 0 3.879 1.168 5.168 2.457A13.134 13.134 0 0114.828 8c-.058.087-.122.183-.195.288-.335.48-.83 1.12-1.465 1.755-.165.165-.337.328-.517.486l.708.709z"/><path d="M11.297 9.176a3.5 3.5 0 00-4.474-4.474l.823.823a2.5 2.5 0 012.829 2.829l.822.822zm-2.943 1.299l.822.822a3.5 3.5 0 01-4.474-4.474l.823.823a2.5 2.5 0 002.829 2.829z"/><path d="M3.35 5.47c-.18.16-.353.322-.518.487A13.134 13.134 0 001.172 8l.195.288c.335.48.83 1.12 1.465 1.755C4.121 11.332 5.881 12.5 8 12.5c.716 0 1.39-.133 2.02-.36l.77.772A7.029 7.029 0 018 13.5C3 13.5 0 8 0 8s.939-1.721 2.641-3.238l.708.709zm10.296 8.884l-12-12 .708-.708 12 12-.708.708z"/></symbol><symbol class="ebi ebi-graph-up" viewBox="0 0 16 16" id="graph-up" xmlns="http://www.w3.org/2000/svg"><path fill-rule="evenodd" d="M0 0h1v15h15v1H0V0zm10 3.5a.5.5 0 01.5-.5h4a.5.5 0 01.5.5v4a.5.5 0 01-1 0V4.9l-3.613 4.417a.5.5 0 01-.74.037L7.06 6.767l-3.656 5.027a.5.5 0 01-.808-.588l4-5.5a.5.5 0 01.758-.06l2.609 2.61L13.445 4H10.5a.5.5 0 01-.5-.5z"/></symbol><symbol class="fbi fbi-people" viewBox="0 0 16 16" id="people" xmlns="http://www.w3.org/2000/svg"><path d="M15 14s1 0 1-1-1-4-5-4-5 3-5 4 1 1 1 1h8zm-7.978-1A.261.261 0 017 12.996c.001-.264.167-1.03.76-1.72C8.312 10.629 9.282 10 11 10c1.717 0 2.687.63 3.24 1.276.593.69.758 1.457.76 1.72l-.008.002a.274.274 0 01-.014.002H7.022zM11 7a2 2 0 100-4 2 2 0 000 4zm3-2a3 3 0 11-6 0 3 3 0 016 0zM6.936 9.28a5.88 5.88 0 00-1.23-.247A7.35 7.35 0 005 9c-4 0-5 3-5 4 0 .667.333 1 1 1h4.216A2.238 2.238 0 015 13c0-1.01.377-2.042 1.09-2.904.243-.294.526-.569.846-.816zM4.92 10A5.493 5.493 0 004 13H1c0-.26.164-1.03.76-1.724.545-.636 1.492-1.256 3.16-1.275zM1.5 5.5a3 3 0 116 0 3 3 0 01-6 0zm3-2a2 2 0 100 4 2 2 0 000-4z"/></symbol><symbol class="gbi gbi-plus-lg" viewBox="0 0 16 16" id="plus-lg" xmlns="http://www.w3.org/2000/svg"><path d="M8 0a1 1 0 011 1v6h6a1 1 0 110 2H9v6a1 1 0 11-2 0V9H1a1 1 0 010-2h6V1a1 1 0 011-1z"/></symbol><symbol class="hbi hbi-search" viewBox="0 0 16 16" id="search" xmlns="http://www.w3.org/2000/svg"><path d="M11.742 10.344a6.5 6.5 0 10-1.397 1.398h-.001c.03.04.062.078.098.115l3.85 3.85a1 1 0 001.415-1.414l-3.85-3.85a1.007 1.007 0 00-.115-.1zM12 6.5a5.5 5.5 0 11-11 0 5.5 5.5 0 0111 0z"/></symbol><symbol class="ibi ibi-sliders" viewBox="0 0 16 16" id="sliders" xmlns="http://www.w3.org/2000/svg"><path fill-rule="evenodd" d="M11.5 2a1.5 1.5 0 100 3 1.5 1.5 0 000-3zM9.05 3a2.5 2.5 0 014.9 0H16v1h-2.05a2.5 2.5 0 01-4.9 0H0V3h9.05zM4.5 7a1.5 1.5 0 100 3 1.5 1.5 0 000-3zM2.05 8a2.5 2.5 0 014.9 0H16v1H6.95a2.5 2.5 0 01-4.9 0H0V8h2.05zm9.45 4a1.5 1.5 0 100 3 1.5 1.5 0 000-3zm-2.45 1a2.5 2.5 0 014.9 0H16v1h-2.05a2.5 2.5 0 01-4.9 0H0v-1h9.05z"/></symbol><symbol class="jbi jbi-speedometer2" viewBox="0 0 16 16" id="speedometer2" xmlns="http://www.w3.org/2000/svg"><path d="M8 4a.5.5 0 01.5.5V6a.5.5 0 01-1 0V4.5A.5.5 0 018 4zM3.732 5.732a.5.5 0 01.707 0l.915.914a.5.5 0 11-.708.708l-.914-.915a.5.5 0 010-.707zM2 10a.5.5 0 01.5-.5h1.586a.5.5 0 010 1H2.5A.5.5 0 012 10zm9.5 0a.5.5 0 01.5-.5h1.5a.5.5 0 010 1H12a.5.5 0 01-.5-.5zm.754-4.246a.389.389 0 00-.527-.02L7.547 9.31a.91.91 0 101.302 1.258l3.434-4.297a.389.389 0 00-.029-.518z"/><path fill-rule="evenodd" d="M0 10a8 8 0 1115.547 2.661c-.442 1.253-1.845 1.602-2.932 1.25C11.309 13.488 9.475 13 8 13c-1.474 0-3.31.488-4.615.911-1.087.352-2.49.003-2.932-1.25A7.988 7.988 0 010 10zm8-7a7 7 0 00-6.603 9.329c.203.575.923.876 1.68.63C4.397 12.533 6.358 12 8 12s3.604.532 4.923.96c.757.245 1.477-.056 1.68-.631A7 7 0 008 3z"/></symbol><symbol class="kbi kbi-trash" viewBox="0 0 16 16" id="trash" xmlns="http://www.w3.org/2000/svg"><path d="M5.5 5.5A.5.5 0 016 6v6a.5.5 0 01-1 0V6a.5.5 0 01.5-.5zm2.5 0a.5.5 0 01.5.5v6a.5.5 0 01-1 0V6a.5.5 0 01.5-.5zm3 .5a.5.5 0 00-1 0v6a.5.5 0 001 0V6z"/><path fill-rule="evenodd" d="M14.5 3a1 1 0 01-1 1H13v9a2 2 0 01-2 2H5a2 2 0 01-2-2V4h-.5a1 1 0 01-1-1V2a1 1 0 011-1H6a1 1 0 011-1h2a1 1 0 011 1h3.5a1 1 0 011 1v1zM4.118 4L4 4.059V13a1 1 0 001 1h6a1 1 0 001-1V4.059L11.882 4H4.118zM2.5 3V2h11v1h-11z"/></symbol><symbol class="lbi lbi-wallet2" viewBox="0 0 16 16" id="wallet2" xmlns="http://www.w3.org/2000/svg"><path d="M12.136.326A1.5 1.5 0 0114 1.78V3h.5A1.5 1.5 0 0116 4.5v9a1.5 1.5 0 01-1.5 1.5h-13A1.5 1.5 0 010 13.5v-9a1.5 1.5 0 011.432-1.499L12.136.326zM5.562 3H13V1.78a.5.5 0 00-.621-.484L5.562 3zM1.5 4a.5.5 0 00-.5.5v9a.5.5 0 00.5.5h13a.5.5 0 00.5-.5v-9a.5.5 0 00-.5-.5h-13z"/></symbol><symbol class="mbi mbi-x-circle" viewBox="0 0 16 16" id="x-circle" xmlns="http://www.w3.org/2000/svg"><path d="M8 15A7 7 0 118 1a7 7 0 010 14zm0 1A8 8 0 108 0a8 8 0 000 16z"/><path d="M4.646 4.646a.5.5 0 01.708 0L8 7.293l2.646-2.647a.5.5 0 01.708.708L8.707 8l2.647 2.646a.5.5 0 01-.708.708L8 8.707l-2.646 2.647a.5.5 0 01-.708-.708L7.293 8 4.646 5.354a.5.5 0 010-.708z"/></symbol></svg>